<svg id="Component_3_1" data-name="Component 3 – 1" xmlns="http://www.w3.org/2000/svg" width="109" height="109" viewBox="0 0 109 109">
  <circle id="Ellipse_4" data-name="Ellipse 4" cx="54.5" cy="54.5" r="54.5" fill="rgba(219,50,78,0.4)"/>
  <g id="behance-network" transform="translate(16.933 30.697)">
    <path id="Path_1" data-name="Path 1" d="M38.875,37.351c0-5.811-2.764-10.106-8.474-11.716,4.166-1.984,6.339-4.99,6.339-9.666C36.74,6.748,29.848,4.5,21.9,4.5H0V50.79H22.508c8.44,0,16.367-4.034,16.367-13.44ZM10.207,12.4h9.578c3.682,0,7,1.031,7,5.289,0,3.931-2.578,5.512-6.226,5.512H10.207Zm0,30.527V30.181H21.329c4.493,0,7.336,1.868,7.336,6.61,0,4.676-3.393,6.138-7.547,6.138Z" transform="translate(0 -4.5)" fill="#fff"/>
    <path id="Path_2" data-name="Path 2" d="M30.529,43.6c8.031,0,13.232-3.607,15.735-11.273H38.113c-.877,2.862-4.493,4.374-7.3,4.374-5.412,0-8.254-3.16-8.254-8.531H46.814c.041-.544.079-1.132.079-1.72,0-9.915-5.817-18.181-16.364-18.181-10.248,0-17.2,7.679-17.2,17.738C13.322,36.436,19.913,43.6,30.529,43.6Zm-.289-28.382c4.638,0,6.971,2.717,7.361,7.16H22.573a7.211,7.211,0,0,1,7.666-7.16Z" transform="translate(28.575 3.572)" fill="#fff"/>
    <path id="Path_3" data-name="Path 3" d="M15.667,5.273H34.5v4.56H15.667Z" transform="translate(33.598 -2.842)" fill="#fff"/>
  </g>
</svg>
