<svg id="Component_2_1" data-name="Component 2 – 1" xmlns="http://www.w3.org/2000/svg" width="109" height="109" viewBox="0 0 109 109">
  <circle id="Ellipse_3" data-name="Ellipse 3" cx="54.5" cy="54.5" r="54.5" fill="rgba(219,50,78,0.4)"/>
  <g id="linkedin" transform="translate(28.474 27.138)">
    <g id="Group_9" data-name="Group 9" transform="translate(0.443 16.425)">
      <g id="Group_8" data-name="Group 8">
        <rect id="Rectangle_13" data-name="Rectangle 13" width="11.583" height="35.61" fill="#fff"/>
      </g>
    </g>
    <g id="Group_11" data-name="Group 11" transform="translate(16.63 16.425)">
      <g id="Group_10" data-name="Group 10">
        <path id="Path_6" data-name="Path 6" d="M186.947,160.418c-.123-.039-.24-.081-.369-.117-.155-.036-.311-.065-.469-.091a10.381,10.381,0,0,0-2.078-.21c-6.753,0-11.036,4.911-12.447,6.808V160H160v35.61h11.583V176.186s8.753-12.191,12.447-3.237V195.61h11.58V171.58A11.549,11.549,0,0,0,186.947,160.418Z" transform="translate(-160 -160)" fill="#fff"/>
      </g>
    </g>
    <g id="Group_13" data-name="Group 13" transform="translate(0 0)">
      <g id="Group_12" data-name="Group 12">
        <circle id="Ellipse_2" data-name="Ellipse 2" cx="6" cy="6" r="6" transform="translate(-0.474 -0.138)" fill="#fff"/>
      </g>
    </g>
  </g>
</svg>
