<svg id="Component_4_1" data-name="Component 4 – 1" xmlns="http://www.w3.org/2000/svg" width="110" height="109" viewBox="0 0 110 109">
  <ellipse id="Ellipse_5" data-name="Ellipse 5" cx="55" cy="54.5" rx="55" ry="54.5" fill="rgba(219,50,78,0.4)"/>
  <g id="instagram" transform="translate(23.189 22.689)">
    <path id="Path_4" data-name="Path 4" d="M22.2,5.838A16.354,16.354,0,1,0,38.554,22.192,16.352,16.352,0,0,0,22.2,5.838Zm0,26.969A10.615,10.615,0,1,1,32.815,22.192,10.611,10.611,0,0,1,22.2,32.807Z" transform="translate(9.68 9.664)" fill="#fff"/>
    <path id="Path_5" data-name="Path 5" d="M45.009.2c-5.864-.274-20.388-.26-26.257,0C13.595.442,9.046,1.688,5.378,5.356-.751,11.485.032,19.744.032,31.857c0,12.4-.69,20.465,5.346,26.5,6.153,6.151,14.532,5.346,26.5,5.346,12.28,0,16.518.008,20.861-1.673,5.9-2.292,10.36-7.569,10.8-17.047.276-5.866.26-20.388,0-26.257C63.01,7.539,57,.753,45.009.2Zm9.282,54.1c-4.018,4.018-9.592,3.66-22.488,3.66-13.279,0-18.6.2-22.488-3.7C4.839,49.809,5.649,42.658,5.649,31.814c0-14.673-1.506-25.24,13.22-25.994,3.383-.12,4.379-.159,12.9-.159l.12.08c14.152,0,25.256-1.482,25.922,13.241.151,3.359.186,4.369.186,12.872,0,13.124.247,18.481-3.7,22.449Z" transform="translate(0 -0.001)" fill="#fff"/>
    <ellipse id="Ellipse_1" data-name="Ellipse 1" cx="3.822" cy="3.822" rx="3.822" ry="3.822" transform="translate(45.06 11.035)" fill="#fff"/>
  </g>
</svg>
